<svg width="40" height="40" viewBox="0 0 40 40" fill="none" xmlns="http://www.w3.org/2000/svg">
<mask id="path-1-outside-1_10_25" maskUnits="userSpaceOnUse" x="23" y="1" width="16" height="16" fill="black">
<rect fill="white" x="23" y="1" width="16" height="16"/>
<path fill-rule="evenodd" clip-rule="evenodd" d="M31 15C34.3137 15 37 12.3137 37 9C37 5.68629 34.3137 3 31 3C27.6863 3 25 5.68629 25 9C25 10.6778 25.6886 12.1947 26.7986 13.2835C27.3634 12.4906 29.6684 9.13061 29.9834 8.64276C29.9684 8.60995 29.9514 8.56567 29.9344 8.52139C29.9259 8.49925 29.9173 8.47711 29.9091 8.4564C29.7181 7.99813 29.4305 7.30427 29.9358 6.5713C30.4822 5.84411 31.3377 5.42012 32.2503 5.45232C32.2632 5.44995 32.2632 5.44995 32.2785 5.46048C32.309 5.48153 32.3162 5.52022 32.2951 5.55077L31.3477 6.92509L32.7678 7.90408L33.72 6.55556C33.7305 6.54029 33.7563 6.53554 33.7821 6.5308C33.795 6.52843 33.8255 6.54948 33.8303 6.57528C34.1698 7.40628 34.0907 8.35424 33.6031 9.11063C33.0873 9.85888 32.3317 9.81111 31.846 9.78041L31.6712 9.77254C31.3035 10.2747 28.9506 13.7015 28.463 14.4388C29.2336 14.7989 30.0933 15 31 15Z"/>
</mask>
<path fill-rule="evenodd" clip-rule="evenodd" d="M31 15C34.3137 15 37 12.3137 37 9C37 5.68629 34.3137 3 31 3C27.6863 3 25 5.68629 25 9C25 10.6778 25.6886 12.1947 26.7986 13.2835C27.3634 12.4906 29.6684 9.13061 29.9834 8.64276C29.9684 8.60995 29.9514 8.56567 29.9344 8.52139C29.9259 8.49925 29.9173 8.47711 29.9091 8.4564C29.7181 7.99813 29.4305 7.30427 29.9358 6.5713C30.4822 5.84411 31.3377 5.42012 32.2503 5.45232C32.2632 5.44995 32.2632 5.44995 32.2785 5.46048C32.309 5.48153 32.3162 5.52022 32.2951 5.55077L31.3477 6.92509L32.7678 7.90408L33.72 6.55556C33.7305 6.54029 33.7563 6.53554 33.7821 6.5308C33.795 6.52843 33.8255 6.54948 33.8303 6.57528C34.1698 7.40628 34.0907 8.35424 33.6031 9.11063C33.0873 9.85888 32.3317 9.81111 31.846 9.78041L31.6712 9.77254C31.3035 10.2747 28.9506 13.7015 28.463 14.4388C29.2336 14.7989 30.0933 15 31 15Z" fill="#979797"/>
<path d="M26.7986 13.2835L25.3981 14.7113L27.0695 16.3508L28.4277 14.4438L26.7986 13.2835ZM29.9834 8.64276L31.6636 9.72751L32.2563 8.80948L31.8039 7.81479L29.9834 8.64276ZM29.9344 8.52139L31.8011 7.8034L31.801 7.8034L29.9344 8.52139ZM29.9091 8.4564L31.767 7.71599L31.7612 7.70154L31.7552 7.68719L29.9091 8.4564ZM29.9358 6.5713L28.3369 5.36994L28.3123 5.40256L28.2892 5.43615L29.9358 6.5713ZM32.2503 5.45232L32.1798 7.45108L32.3976 7.45876L32.612 7.41934L32.2503 5.45232ZM32.2951 5.55077L30.6485 4.41561L30.6485 4.41562L32.2951 5.55077ZM31.3477 6.92509L29.701 5.78994L28.5659 7.43659L30.2125 8.57173L31.3477 6.92509ZM32.7678 7.90408L31.6327 9.55073L33.2609 10.6732L34.4016 9.05766L32.7678 7.90408ZM33.72 6.55556L35.3538 7.70913L35.3602 7.69998L35.3666 7.69076L33.72 6.55556ZM33.7821 6.5308L34.1438 8.49782L34.1438 8.49782L33.7821 6.5308ZM33.8303 6.57528L31.8633 6.93697L31.9006 7.14028L31.9788 7.33165L33.8303 6.57528ZM33.6031 9.11063L35.2497 10.2458L35.2673 10.2203L35.284 10.1943L33.6031 9.11063ZM31.846 9.78041L31.9722 7.78439L31.9541 7.78324L31.9359 7.78243L31.846 9.78041ZM31.6712 9.77254L31.7611 7.77456L30.6908 7.72642L30.0577 8.59083L31.6712 9.77254ZM28.463 14.4388L26.7948 13.3356L25.5159 15.2693L27.6163 16.2508L28.463 14.4388ZM35 9C35 11.2091 33.2091 13 31 13V17C35.4183 17 39 13.4183 39 9H35ZM31 5C33.2091 5 35 6.79086 35 9H39C39 4.58172 35.4183 1 31 1V5ZM27 9C27 6.79086 28.7909 5 31 5V1C26.5817 1 23 4.58172 23 9H27ZM28.1992 11.8558C27.4568 11.1275 27 10.1189 27 9H23C23 11.2366 23.9204 13.2618 25.3981 14.7113L28.1992 11.8558ZM28.3031 7.55801C28.0114 8.00981 25.7258 11.3423 25.1696 12.1233L28.4277 14.4438C29.0009 13.639 31.3254 10.2514 31.6636 9.72751L28.3031 7.55801ZM28.0677 9.23937C28.0769 9.26334 28.1176 9.37142 28.1628 9.47073L31.8039 7.81479C31.8074 7.82246 31.8102 7.82873 31.8121 7.83327C31.8141 7.83785 31.8156 7.84133 31.8165 7.8435C31.8182 7.84757 31.8187 7.84877 31.8175 7.84595C31.8165 7.84323 31.8147 7.83863 31.8117 7.83107C31.8087 7.82332 31.8055 7.81495 31.8011 7.8034L28.0677 9.23937ZM28.0512 9.1968C28.0542 9.2043 28.0583 9.21484 28.0677 9.23938L31.801 7.8034C31.7935 7.78365 31.7805 7.74991 31.767 7.71599L28.0512 9.1968ZM28.2892 5.43615C27.1132 7.14206 27.8935 8.81902 28.0629 9.22561L31.7552 7.68719C31.7306 7.62813 31.7133 7.58618 31.6971 7.54497C31.6817 7.50556 31.671 7.47579 31.6633 7.45207C31.6473 7.40288 31.6491 7.39489 31.6512 7.4156C31.6538 7.44114 31.6554 7.49669 31.6388 7.5673C31.6308 7.60125 31.6202 7.63201 31.6085 7.65815C31.597 7.68414 31.5867 7.70026 31.5825 7.70644L28.2892 5.43615ZM32.3208 3.45356C30.7327 3.39753 29.2625 4.13797 28.3369 5.36994L31.5348 7.77265C31.7019 7.55025 31.9426 7.44271 32.1798 7.45108L32.3208 3.45356ZM33.4136 3.81383C33.4131 3.81346 33.4103 3.81153 33.4073 3.80946C33.4042 3.80731 33.3986 3.80353 33.3919 3.79897C33.3804 3.79123 33.3525 3.77253 33.3165 3.75038C33.2539 3.71192 33.0743 3.60416 32.8197 3.53044C32.5283 3.44609 32.2727 3.44313 32.0938 3.45786C32.018 3.46411 31.9586 3.47341 31.9323 3.4777C31.9176 3.4801 31.9058 3.48219 31.8996 3.4833C31.8963 3.4839 31.8935 3.4844 31.8918 3.48471C31.8903 3.485 31.8888 3.48526 31.8886 3.4853L32.612 7.41934C32.6517 7.41205 32.542 7.43449 32.4222 7.44436C32.2475 7.45876 31.9953 7.45602 31.7074 7.37268C31.4562 7.29998 31.2804 7.19405 31.2225 7.15847C31.1695 7.1259 31.1219 7.09233 31.1433 7.10712L33.4136 3.81383ZM33.9417 6.68592C34.5897 5.74594 34.3536 4.4618 33.4136 3.81383L31.1433 7.10712C30.2645 6.50126 30.0426 5.29451 30.6485 4.41561L33.9417 6.68592ZM32.9943 8.06023L33.9417 6.68591L30.6485 4.41562L29.701 5.78994L32.9943 8.06023ZM33.903 6.25743L32.4828 5.27844L30.2125 8.57173L31.6327 9.55073L33.903 6.25743ZM32.0862 5.40198L31.134 6.75051L34.4016 9.05766L35.3538 7.70913L32.0862 5.40198ZM33.4204 4.56377C33.42 4.56385 33.3813 4.57078 33.3381 4.58018C33.2938 4.5898 33.2101 4.60922 33.1091 4.64312C32.9619 4.6925 32.449 4.87547 32.0734 5.42035L35.3666 7.69076C35.0015 8.22038 34.5067 8.39333 34.3815 8.43534C34.2314 8.4857 34.0945 8.50688 34.1438 8.49782L33.4204 4.56377ZM35.7973 6.21358C35.6815 5.58357 35.3128 5.19181 35.0888 5.00536C34.9585 4.89685 34.791 4.7846 34.5846 4.69583C34.4407 4.63395 33.997 4.45775 33.4204 4.56378L34.1438 8.49782C33.5736 8.60266 33.1386 8.42821 33.0042 8.37041C32.8073 8.28573 32.6502 8.17991 32.5297 8.07959C32.3254 7.90952 31.9744 7.54119 31.8633 6.93697L35.7973 6.21358ZM35.284 10.1943C36.1331 8.87735 36.2628 7.24118 35.6817 5.81891L31.9788 7.33165C32.0768 7.57138 32.0484 7.83112 31.9221 8.02693L35.284 10.1943ZM31.7199 11.7764C32.153 11.8038 34.0407 11.9995 35.2497 10.2458L31.9564 7.97549C31.9599 7.97041 31.9713 7.95497 31.9925 7.934C32.0138 7.91288 32.0408 7.89046 32.0727 7.86927C32.1393 7.82503 32.1996 7.80441 32.2326 7.79623C32.2605 7.78935 32.2603 7.7934 32.2136 7.79432C32.1912 7.79476 32.1619 7.79445 32.1214 7.7928C32.0789 7.79106 32.0355 7.78839 31.9722 7.78439L31.7199 11.7764ZM31.5814 11.7705L31.7562 11.7784L31.9359 7.78243L31.7611 7.77456L31.5814 11.7705ZM30.1312 15.5421C30.6115 14.8158 32.9444 11.4191 33.2848 10.9543L30.0577 8.59083C29.6627 9.13022 27.2898 12.5871 26.7948 13.3356L30.1312 15.5421ZM31 13C30.3919 13 29.8206 12.8656 29.3096 12.6269L27.6163 16.2508C28.6465 16.7321 29.7947 17 31 17V13Z" fill="white" mask="url(#path-1-outside-1_10_25)"/>
</svg>
